<?xml version="1.0" encoding="utf-8"?>
<!-- Generator: Adobe Illustrator 16.0.0, SVG Export Plug-In . SVG Version: 6.00 Build 0)  -->
<!DOCTYPE svg PUBLIC "-//W3C//DTD SVG 1.1//EN" "http://www.w3.org/Graphics/SVG/1.1/DTD/svg11.dtd">
<svg version="1.1" id="Layer_1" xmlns="http://www.w3.org/2000/svg" xmlns:xlink="http://www.w3.org/1999/xlink" x="0px" y="0px"
	 width="512px" height="512px" viewBox="0 0 512 512" enable-background="new 0 0 512 512" xml:space="preserve">
<path d="M216,336.88v-14.76l-13.856-4.92c-1.166-4.508-2.962-8.761-5.277-12.673l0.019-0.019l6.32-13.277l-10.438-10.437
	l-13.276,6.318l-0.019,0.02c-3.912-2.314-8.166-4.111-12.672-5.276L161.88,268h-14.76l-4.919,13.857
	c-4.507,1.164-8.76,2.961-12.673,5.276l-0.019-0.021l-13.277-6.318l-10.437,10.438l6.319,13.276l0.02,0.019
	c-2.315,3.912-4.112,8.166-5.277,12.673L93,322.12v14.76l13.857,4.92c1.164,4.507,2.962,8.761,5.277,12.673l-0.02,0.019
	l-6.319,13.276l10.437,10.438l13.277-6.32l0.019-0.018c3.912,2.314,8.166,4.11,12.672,5.276L147.12,391h14.76l4.92-13.856
	c4.507-1.165,8.76-2.962,12.672-5.276l0.019,0.018l13.276,6.32l10.438-10.438l-6.32-13.276l-0.019-0.019
	c2.315-3.912,4.111-8.166,5.277-12.673L216,336.88z M154.5,354.1c-13.586,0-24.6-11.014-24.6-24.6s11.014-24.6,24.6-24.6
	s24.6,11.014,24.6,24.6S168.087,354.1,154.5,354.1z"/>
<path d="M314,278.38v-14.76l-13.856-4.92c-1.165-4.508-2.962-8.761-5.277-12.673l0.019-0.019l6.32-13.277l-10.438-10.437
	l-13.276,6.318l-0.019,0.02c-3.912-2.314-8.166-4.111-12.673-5.276l-4.92-13.856h-14.76l-4.919,13.857
	c-4.507,1.164-8.76,2.961-12.673,5.276l-0.019-0.021l-13.277-6.318l-10.437,10.438l6.319,13.276l0.02,0.019
	c-2.315,3.912-4.112,8.166-5.277,12.673L191,263.62v14.76l13.857,4.92c1.164,4.507,2.962,8.761,5.277,12.673l-0.02,0.019
	l-6.319,13.276l10.437,10.438l13.277-6.32l0.019-0.018c3.912,2.314,8.166,4.11,12.672,5.276l4.919,13.856h14.76l4.92-13.856
	c4.507-1.165,8.761-2.962,12.673-5.276l0.019,0.018l13.276,6.32l10.438-10.438l-6.32-13.276l-0.019-0.019
	c2.315-3.912,4.111-8.166,5.277-12.673L314,278.38z M252.5,295.6c-13.586,0-24.6-11.014-24.6-24.6s11.014-24.6,24.6-24.6
	c13.586,0,24.6,11.014,24.6,24.6S266.086,295.6,252.5,295.6z"/>
<path d="M228.972,152.585l-9.825-17.053l-19.284,3.539c-4.347-4.433-9.254-8.15-14.533-11.129l0.01-0.033l-1.536-19.547
	l-19.006-5.11l-11.134,16.138l-0.008,0.035c-6.061-0.07-12.172,0.686-18.154,2.339l-14.908-12.733l-17.054,9.825l3.54,19.285
	c-4.432,4.346-8.15,9.252-11.129,14.532l-0.035-0.012l-19.546,1.538l-5.111,19.006l16.138,11.133l0.036,0.008
	c-0.071,6.062,0.685,12.172,2.338,18.154l-12.733,14.908l9.824,17.053l19.285-3.539c4.345,4.432,9.254,8.15,14.532,11.129
	l-0.011,0.035l1.535,19.545l19.008,5.113l11.133-16.142l0.01-0.032c6.061,0.069,12.171-0.688,18.154-2.34l14.906,12.735
	l17.055-9.825l-3.539-19.285c4.432-4.345,8.15-9.253,11.129-14.531l0.033,0.008l19.547-1.535l5.111-19.007l-16.141-11.132
	l-0.033-0.009c0.07-6.061-0.686-12.172-2.338-18.155L228.972,152.585z M169.379,213.417c-15.697,9.043-35.753,3.65-44.797-12.047
	c-9.043-15.696-3.649-35.753,12.048-44.796s35.753-3.65,44.796,12.047C190.469,184.318,185.076,204.374,169.379,213.417z"/>
<path d="M324.558,347.012l-2.823-8.546l-8.963-0.198c-1.537-2.386-3.391-4.506-5.479-6.327l0.009-0.014l1.119-8.896l-8.039-4.048
	l-6.479,6.197l-0.007,0.014c-2.708-0.591-5.514-0.817-8.346-0.63l-5.5-7.081l-8.545,2.822l-0.199,8.964
	c-2.387,1.537-4.505,3.39-6.328,5.479l-0.014-0.008l-8.895-1.118l-4.049,8.038l6.197,6.479l0.016,0.007
	c-0.592,2.708-0.818,5.515-0.631,8.347l-7.082,5.499l2.822,8.545l8.964,0.199c1.536,2.387,3.391,4.506,5.479,6.328l-0.008,0.014
	l-1.119,8.896l8.04,4.048l6.478-6.199l0.007-0.013c2.709,0.591,5.514,0.817,8.348,0.631l5.496,7.083l8.547-2.824l0.199-8.963
	c2.387-1.537,4.506-3.391,6.329-5.479l0.013,0.008l8.896,1.119l4.047-8.039l-6.199-6.479l-0.015-0.006
	c0.593-2.708,0.819-5.515,0.634-8.347L324.558,347.012z M292.242,368.744c-7.865,2.599-16.349-1.671-18.947-9.539
	c-2.598-7.866,1.673-16.35,9.539-18.948c7.867-2.598,16.35,1.673,18.947,9.539C304.38,357.663,300.11,366.146,292.242,368.744z"/>
<path d="M323.37,173.055l-3.844-8.139l-8.92,0.895c-1.816-2.181-3.915-4.059-6.209-5.612l0.006-0.015l0.027-8.967l-8.472-3.039
	l-5.677,6.94l-0.005,0.014c-2.76-0.256-5.572-0.14-8.36,0.392l-6.321-6.359l-8.138,3.842l0.894,8.921
	c-2.181,1.817-4.058,3.914-5.613,6.209l-0.015-0.006l-8.965-0.027l-3.039,8.471l6.939,5.676l0.017,0.005
	c-0.258,2.759-0.141,5.573,0.391,8.361l-6.36,6.32l3.842,8.138l8.922-0.894c1.815,2.182,3.914,4.059,6.209,5.614l-0.007,0.014
	l-0.027,8.966l8.473,3.039l5.675-6.941l0.006-0.014c2.76,0.256,5.572,0.14,8.361-0.391l6.318,6.361l8.139-3.844l-0.894-8.92
	c2.183-1.817,4.06-3.914,5.615-6.21l0.014,0.006l8.966,0.027l3.038-8.472l-6.942-5.676l-0.016-0.004
	c0.259-2.76,0.142-5.574-0.387-8.362L323.37,173.055z M293.942,198.561c-7.49,3.537-16.431,0.333-19.968-7.161
	c-3.537-7.491-0.331-16.432,7.16-19.969c7.492-3.537,16.432-0.331,19.968,7.16C304.639,186.084,301.434,195.024,293.942,198.561z"/>
<path d="M434,155.558v-14.76l-13.856-4.92c-1.165-4.508-2.962-8.761-5.277-12.673l0.019-0.019l6.32-13.277l-10.438-10.437
	l-13.276,6.318l-0.019,0.02c-3.912-2.314-8.166-4.111-12.673-5.276l-4.92-13.856h-14.761l-4.919,13.857
	c-4.507,1.164-8.761,2.961-12.673,5.276l-0.019-0.021l-13.277-6.318l-10.437,10.438l6.318,13.276l0.02,0.019
	c-2.314,3.912-4.111,8.166-5.276,12.673L311,140.798v14.76l13.857,4.92c1.164,4.507,2.961,8.761,5.276,12.673l-0.021,0.019
	l-6.318,13.276l10.437,10.438l13.277-6.32l0.019-0.018c3.912,2.314,8.166,4.11,12.673,5.276l4.919,13.856h14.761l4.92-13.856
	c4.507-1.165,8.761-2.962,12.673-5.276l0.019,0.018l13.276,6.32l10.438-10.438l-6.32-13.276l-0.019-0.019
	c2.315-3.912,4.111-8.166,5.277-12.673L434,155.558z M372.5,172.778c-13.586,0-24.6-11.014-24.6-24.6s11.014-24.6,24.6-24.6
	s24.6,11.014,24.6,24.6S386.086,172.778,372.5,172.778z"/>
<path d="M442.558,226.012l-2.823-8.546l-8.963-0.198c-1.537-2.386-3.391-4.506-5.479-6.327l0.009-0.014l1.119-8.896l-8.039-4.048
	l-6.479,6.197l-0.007,0.014c-2.708-0.591-5.514-0.817-8.346-0.63l-5.5-7.081l-8.545,2.822l-0.199,8.964
	c-2.387,1.537-4.505,3.39-6.328,5.479l-0.014-0.008l-8.895-1.118l-4.049,8.038l6.197,6.479l0.016,0.007
	c-0.592,2.708-0.818,5.515-0.631,8.347l-7.082,5.499l2.822,8.545l8.964,0.199c1.536,2.387,3.391,4.506,5.479,6.328l-0.008,0.014
	l-1.119,8.896l8.04,4.048l6.478-6.199l0.007-0.013c2.709,0.591,5.514,0.817,8.348,0.631l5.496,7.083l8.547-2.824l0.199-8.963
	c2.387-1.537,4.506-3.391,6.329-5.479l0.013,0.008l8.896,1.119l4.047-8.039l-6.199-6.479l-0.015-0.006
	c0.593-2.708,0.819-5.515,0.634-8.347L442.558,226.012z M410.242,247.744c-7.865,2.599-16.349-1.671-18.947-9.539
	c-2.598-7.866,1.673-16.35,9.539-18.948c7.867-2.598,16.35,1.673,18.947,9.539C422.38,236.663,418.11,245.146,410.242,247.744z"/>
<path d="M302.149,113.765l-4.156-3.74l-4.896,2.656c-1.564-0.815-3.218-1.388-4.906-1.725l0.001-0.012l-2.138-5.146l-5.586,0.292
	l-1.586,5.341l0.002,0.009c-1.641,0.516-3.227,1.258-4.697,2.233l-5.148-2.126l-3.74,4.154l2.655,4.899
	c-0.813,1.565-1.386,3.217-1.726,4.905h-0.01l-5.144,2.137l0.292,5.585l5.34,1.584l0.01,0.001c0.516,1.643,1.258,3.225,2.231,4.695
	l-2.126,5.149l4.155,3.74l4.897-2.654c1.566,0.815,3.218,1.387,4.906,1.728l0.001,0.01l2.136,5.145l5.585-0.296l1.586-5.34
	l-0.001-0.01c1.645-0.516,3.227-1.255,4.697-2.232l5.148,2.129l3.74-4.158l-2.654-4.897c0.814-1.564,1.387-3.216,1.729-4.906
	l0.008,0.001l5.145-2.137l-0.295-5.585l-5.34-1.586l-0.011,0.003c-0.515-1.644-1.257-3.229-2.229-4.697L302.149,113.765z
	 M291.412,135.448c-3.442,3.827-9.337,4.135-13.162,0.692c-3.825-3.443-4.137-9.338-0.691-13.162
	c3.442-3.827,9.334-4.136,13.16-0.692C294.545,125.73,294.856,131.623,291.412,135.448z"/>
<path d="M430.02,401.38v-14.76l-13.856-4.92c-1.165-4.508-2.962-8.761-5.277-12.673l0.019-0.019l6.32-13.277l-10.438-10.437
	l-13.276,6.318l-0.019,0.02c-3.912-2.314-8.166-4.111-12.673-5.276L375.9,332.5h-14.761l-4.919,13.857
	c-4.507,1.164-8.761,2.961-12.673,5.276l-0.019-0.021l-13.277-6.318l-10.437,10.438l6.318,13.276l0.02,0.019
	c-2.314,3.912-4.111,8.166-5.276,12.673l-13.856,4.92v14.76l13.857,4.92c1.164,4.507,2.961,8.761,5.276,12.673l-0.021,0.019
	l-6.318,13.276l10.437,10.438l13.277-6.32l0.019-0.018c3.912,2.314,8.166,4.11,12.673,5.276l4.919,13.856H375.9l4.92-13.856
	c4.507-1.165,8.761-2.962,12.673-5.276l0.019,0.018l13.276,6.32l10.438-10.438l-6.32-13.276l-0.019-0.019
	c2.315-3.912,4.111-8.166,5.277-12.673L430.02,401.38z M368.52,418.6c-13.586,0-24.6-11.014-24.6-24.6s11.014-24.6,24.6-24.6
	s24.6,11.014,24.6,24.6S382.106,418.6,368.52,418.6z"/>
<path d="M263.264,379.877l-2.923-4.054l-4.775,1.393c-1.21-1.008-2.546-1.82-3.957-2.432l0.004-0.01l-0.893-4.896l-4.932-0.802
	l-2.395,4.362l0,0.008c-1.528,0.14-3.054,0.488-4.522,1.062l-4.091-2.83l-4.051,2.919l1.392,4.779
	c-1.007,1.211-1.818,2.547-2.435,3.955l-0.009-0.001l-4.896,0.892l-0.801,4.932l4.362,2.393l0.008,0.003
	c0.14,1.532,0.487,3.054,1.061,4.521l-2.83,4.093l2.92,4.051l4.777-1.392c1.214,1.009,2.547,1.82,3.956,2.438l-0.001,0.008
	l0.892,4.896l4.932,0.798l2.394-4.363l0-0.008c1.534-0.139,3.055-0.485,4.524-1.059l4.091,2.83l4.051-2.921l-1.389-4.778
	c1.005-1.21,1.817-2.545,2.436-3.955l0.008,0.002l4.895-0.892l0.799-4.933l-4.361-2.395l-0.011,0.003
	c-0.136-1.535-0.487-3.059-1.057-4.523L263.264,379.877z M249.79,396.772c-3.729,2.691-8.933,1.844-11.621-1.886
	c-2.688-3.728-1.844-8.934,1.887-11.62c3.728-2.688,8.93-1.844,11.619,1.886C254.364,388.882,253.52,394.084,249.79,396.772z"/>
<path d="M281.481,95.833l-1.11-2.417l-2.639,0.239c-0.527-0.651-1.141-1.212-1.815-1.675l0.003-0.004l0.035-2.65l-2.494-0.923
	l-1.696,2.033l-0.001,0.003c-0.813-0.082-1.646-0.056-2.472,0.093l-1.846-1.897l-2.415,1.109l0.237,2.638
	c-0.65,0.531-1.21,1.145-1.676,1.817l-0.007-0.001l-2.646-0.037l-0.925,2.495l2.034,1.696l0.004,0.001
	c-0.083,0.815-0.058,1.646,0.091,2.47l-1.896,1.847l1.11,2.416l2.637-0.239c0.531,0.652,1.144,1.213,1.816,1.679l-0.001,0.004
	l-0.035,2.649l2.492,0.921l1.698-2.032v-0.006c0.816,0.085,1.644,0.06,2.472-0.088l1.846,1.896l2.416-1.111l-0.237-2.639
	c0.648-0.527,1.21-1.142,1.678-1.815l0.003,0.002l2.648,0.035l0.921-2.493l-2.032-1.698l-0.006,0.001
	c0.086-0.816,0.059-1.648-0.088-2.472L281.481,95.833z M272.716,103.276c-2.223,1.024-4.854,0.048-5.877-2.175
	c-1.022-2.221-0.049-4.854,2.176-5.875c2.222-1.022,4.853-0.048,5.874,2.175C275.911,99.624,274.939,102.254,272.716,103.276z"/>
<path d="M265.481,139.643l-1.11-2.417l-2.639,0.239c-0.527-0.651-1.141-1.212-1.815-1.675l0.003-0.004l0.035-2.65l-2.494-0.923
	l-1.696,2.033l-0.001,0.003c-0.813-0.082-1.646-0.056-2.472,0.093l-1.846-1.897l-2.415,1.109l0.237,2.638
	c-0.65,0.531-1.21,1.145-1.676,1.817l-0.007-0.001l-2.646-0.037l-0.925,2.495l2.034,1.696l0.004,0.001
	c-0.083,0.815-0.058,1.646,0.091,2.47l-1.896,1.847l1.11,2.416l2.637-0.24c0.531,0.652,1.144,1.213,1.816,1.68l-0.001,0.004
	l-0.035,2.648l2.492,0.922l1.698-2.033v-0.006c0.816,0.086,1.644,0.061,2.472-0.088l1.846,1.896l2.416-1.11l-0.237-2.64
	c0.648-0.527,1.21-1.141,1.678-1.814l0.003,0.002l2.648,0.035l0.921-2.494l-2.032-1.697l-0.006,0.002
	c0.086-0.817,0.059-1.648-0.088-2.472L265.481,139.643z M256.716,147.087c-2.223,1.024-4.854,0.048-5.877-2.175
	c-1.022-2.222-0.049-4.854,2.176-5.875c2.222-1.022,4.853-0.048,5.874,2.175C259.911,143.434,258.939,146.064,256.716,147.087z"/>
</svg>
